HIERARCHY
ROOT reference
{
  OFFSET 0 0 0
  CHANNELS 6 Xposition Yposition Zposition Zrotation Xrotation Yrotation
  JOINT Hips
  {
    OFFSET 355.919 86.4685 225.794
    CHANNELS 3 Zrotation Xrotation Yrotation
    JOINT RightUpLeg
    {
      OFFSET -9.27022 -1.53975 0.0125073
      CHANNELS 3 Zrotation Xrotation Yrotation
      JOINT RightLeg
      {
        OFFSET 0.013591 -41.8786 0.0152335
        CHANNELS 3 Zrotation Xrotation Yrotation
        JOINT RightFoot
        {
          OFFSET -0.635566 -43.1371 -0.638083
          CHANNELS 3 Zrotation Xrotation Yrotation
          End Site
          {
            OFFSET 0 -7.69 17.5
          }
        }
      }
    }
    JOINT LeftUpLeg
    {
      OFFSET 9.3307 -1.62449 -0.0651281
      CHANNELS 3 Zrotation Xrotation Yrotation
      JOINT LeftLeg
      {
        OFFSET 0.136006 -41.8606 -0.0682192
        CHANNELS 3 Zrotation Xrotation Yrotation
        JOINT LeftFoot
        {
          OFFSET 0.555276 -40.3296 1.11688
          CHANNELS 3 Zrotation Xrotation Yrotation
          End Site
          {
            OFFSET 0 -7.69 17.5
          }
        }
      }
    }
    JOINT Spine
    {
      OFFSET 0.0523142 14.2998 0.0636653
      CHANNELS 3 Zrotation Xrotation Yrotation
      JOINT Spine1
      {
        OFFSET 0.0411785 9.71676 0.0113233
        CHANNELS 3 Zrotation Xrotation Yrotation
        JOINT Spine2
        {
          OFFSET 0.0674534 10.1151 -0.00111457
          CHANNELS 3 Zrotation Xrotation Yrotation
          JOINT Spine3
          {
            OFFSET 0.048863 9.72171 0.0174249
            CHANNELS 3 Zrotation Xrotation Yrotation
            JOINT Neck
            {
              OFFSET 0.180558 10.3768 0.0617075
              CHANNELS 3 Zrotation Xrotation Yrotation
              JOINT Head
              {
                OFFSET 0.135918 9.47305 0.0380206
                CHANNELS 3 Zrotation Xrotation Yrotation
                End Site
                {
                  OFFSET 0 15.95 0
                }
              }
            }
            JOINT RightShoulder
            {
              OFFSET -3.15694 6.89408 0.00348883
              CHANNELS 3 Zrotation Xrotation Yrotation
              JOINT RightArm
              {
                OFFSET -12.7409 -0.0031918 0.045926
                CHANNELS 3 Zrotation Xrotation Yrotation
                JOINT RightForeArm
                {
                  OFFSET -26.5086 -0.0806184 0.00400063
                  CHANNELS 3 Zrotation Xrotation Yrotation
                  JOINT RightHand
                  {
                    OFFSET -26.0338 -0.025514 0.155859
                    CHANNELS 3 Zrotation Xrotation Yrotation
                    JOINT RightHandThumb1
                    {
                      OFFSET -2.48905 0.190105 3.12053
                      CHANNELS 3 Zrotation Xrotation Yrotation
                      JOINT RightHandThumb2
                      {
                        OFFSET -3.68274 0 0
                        CHANNELS 3 Zrotation Xrotation Yrotation
                        JOINT RightHandThumb3
                        {
                          OFFSET -2.55832 0 0
                          CHANNELS 3 Zrotation Xrotation Yrotation
                          End Site
                          {
                            OFFSET -2.194 0 0
                          }
                        }
                      }
                    }
                    JOINT RightInHandIndex
                    {
                      OFFSET -3.22368 0.508421 1.97842
                      CHANNELS 3 Zrotation Xrotation Yrotation
                      JOINT RightHandIndex1
                      {
                        OFFSET -5.21684 -0.091368 0.999158
                        CHANNELS 3 Zrotation Xrotation Yrotation
                        JOINT RightHandIndex2
                        {
                          OFFSET -3.61937 0 0
                          CHANNELS 3 Zrotation Xrotation Yrotation
                          JOINT RightHandIndex3
                          {
                            OFFSET -2.0521 0 0
                            CHANNELS 3 Zrotation Xrotation Yrotation
                            End Site
                            {
                              OFFSET -1.805 0 0
                            }
                          }
                        }
                      }
                    }
                    JOINT RightInHandMiddle
                    {
                      OFFSET -3.38211 0.517263 0.756737
                      CHANNELS 3 Zrotation Xrotation Yrotation
                      JOINT RightHandMiddle1
                      {
                        OFFSET -5.17411 -0.084 0.313895
                        CHANNELS 3 Zrotation Xrotation Yrotation
                        JOINT RightHandMiddle2
                        {
                          OFFSET -3.94947 0 0
                          CHANNELS 3 Zrotation Xrotation Yrotation
                          JOINT RightHandMiddle3
                          {
                            OFFSET -2.47579 0 0
                            CHANNELS 3 Zrotation Xrotation Yrotation
                            End Site
                            {
                              OFFSET -1.975 0 0
                            }
                          }
                        }
                      }
                    }
                    JOINT RightInHandRing
                    {
                      OFFSET -3.36516 0.537895 -0.128947
                      CHANNELS 3 Zrotation Xrotation Yrotation
                      JOINT RightHandRing1
                      {
                        OFFSET -4.63474 -0.022105 -0.478947
                        CHANNELS 3 Zrotation Xrotation Yrotation
                        JOINT RightHandRing2
                        {
                          OFFSET -3.44238 0 0
                          CHANNELS 3 Zrotation Xrotation Yrotation
                          JOINT RightHandRing3
                          {
                            OFFSET -2.3881 0 0
                            CHANNELS 3 Zrotation Xrotation Yrotation
                            End Site
                            {
                              OFFSET -1.857 0 0
                            }
                          }
                        }
                      }
                    }
                    JOINT RightInHandPinky
                    {
                      OFFSET -3.16105 0.469368 -1.20179
                      CHANNELS 3 Zrotation Xrotation Yrotation
                      JOINT RightHandPinky1
                      {
                        OFFSET -4.14105 -0.022105 -1.09053
                        CHANNELS 3 Zrotation Xrotation Yrotation
                        JOINT RightHandPinky2
                        {
                          OFFSET -2.75653 0 0
                          CHANNELS 3 Zrotation Xrotation Yrotation
                          JOINT RightHandPinky3
                          {
                            OFFSET -1.74189 0 0
                            CHANNELS 3 Zrotation Xrotation Yrotation
                            End Site
                            {
                              OFFSET -1.645 0 0
                            }
                          }
                        }
                      }
                    }
                  }
                }
              }
            }
            JOINT LeftShoulder
            {
              OFFSET 3.22505 6.94333 0.022328
              CHANNELS 3 Zrotation Xrotation Yrotation
              JOINT LeftArm
              {
                OFFSET 12.8536 -0.0213048 -0.00476292
                CHANNELS 3 Zrotation Xrotation Yrotation
                JOINT LeftForeArm
                {
                  OFFSET 26.4992 -0.0497473 -0.102272
                  CHANNELS 3 Zrotation Xrotation Yrotation
                  JOINT LeftHand
                  {
                    OFFSET 25.9818 -0.0182282 -0.0189166
                    CHANNELS 3 Zrotation Xrotation Yrotation
                    JOINT LeftHandThumb1
                    {
                      OFFSET 2.48905 0.190105 3.12053
                      CHANNELS 3 Zrotation Xrotation Yrotation
                      JOINT LeftHandThumb2
                      {
                        OFFSET 3.68274 0 0
                        CHANNELS 3 Zrotation Xrotation Yrotation
                        JOINT LeftHandThumb3
                        {
                          OFFSET 2.55832 0 0
                          CHANNELS 3 Zrotation Xrotation Yrotation
                          End Site
                          {
                            OFFSET 2.194 0 0
                          }
                        }
                      }
                    }
                    JOINT LeftInHandIndex
                    {
                      OFFSET 3.22368 0.508421 1.97842
                      CHANNELS 3 Zrotation Xrotation Yrotation
                      JOINT LeftHandIndex1
                      {
                        OFFSET 5.21684 -0.091368 0.999158
                        CHANNELS 3 Zrotation Xrotation Yrotation
                        JOINT LeftHandIndex2
                        {
                          OFFSET 3.61937 0 0
                          CHANNELS 3 Zrotation Xrotation Yrotation
                          JOINT LeftHandIndex3
                          {
                            OFFSET 2.0521 0 0
                            CHANNELS 3 Zrotation Xrotation Yrotation
                            End Site
                            {
                              OFFSET 1.805 0 0
                            }
                          }
                        }
                      }
                    }
                    JOINT LeftInHandMiddle
                    {
                      OFFSET 3.38211 0.517263 0.756737
                      CHANNELS 3 Zrotation Xrotation Yrotation
                      JOINT LeftHandMiddle1
                      {
                        OFFSET 5.17411 -0.084 0.313895
                        CHANNELS 3 Zrotation Xrotation Yrotation
                        JOINT LeftHandMiddle2
                        {
                          OFFSET 3.94947 0 0
                          CHANNELS 3 Zrotation Xrotation Yrotation
                          JOINT LeftHandMiddle3
                          {
                            OFFSET 2.47579 0 0
                            CHANNELS 3 Zrotation Xrotation Yrotation
                            End Site
                            {
                              OFFSET 1.975 0 0
                            }
                          }
                        }
                      }
                    }
                    JOINT LeftInHandRing
                    {
                      OFFSET 3.36516 0.537895 -0.128947
                      CHANNELS 3 Zrotation Xrotation Yrotation
                      JOINT LeftHandRing1
                      {
                        OFFSET 4.63474 -0.022105 -0.478947
                        CHANNELS 3 Zrotation Xrotation Yrotation
                        JOINT LeftHandRing2
                        {
                          OFFSET 3.44238 0 0
                          CHANNELS 3 Zrotation Xrotation Yrotation
                          JOINT LeftHandRing3
                          {
                            OFFSET 2.3881 0 0
                            CHANNELS 3 Zrotation Xrotation Yrotation
                            End Site
                            {
                              OFFSET 1.857 0 0
                            }
                          }
                        }
                      }
                    }
                    JOINT LeftInHandPinky
                    {
                      OFFSET 3.16105 0.469368 -1.20179
                      CHANNELS 3 Zrotation Xrotation Yrotation
                      JOINT LeftHandPinky1
                      {
                        OFFSET 4.14105 -0.022105 -1.09053
                        CHANNELS 3 Zrotation Xrotation Yrotation
                        JOINT LeftHandPinky2
                        {
                          OFFSET 2.75653 0 0
                          CHANNELS 3 Zrotation Xrotation Yrotation
                          JOINT LeftHandPinky3
                          {
                            OFFSET 1.74189 0 0
                            CHANNELS 3 Zrotation Xrotation Yrotation
                            End Site
                            {
                              OFFSET 1.645 0 0
                            }
                          }
                        }
                      }
                    }
                  }
                }
              }
            }
          }
        }
      }
    }
  }
}
MOTION
Frames: 2
Frame Time: 0.00833333
2.250000000000000000e+03 0.000000000000000000e+00 0.000000000000000000e+00 0.000000000000000000e+00 0.000000000000000000e+00 0.000000000000000000e+00 2.844000000000000128e+01 1.361700000000000266e+01 -7.353890000000001237e+01 -2.689290000000000092e+01 -5.922639999999999816e+01 -2.687970000000000326e+01 2.376660000000000217e+00 2.559019999999999939e+01 -1.720249999999999702e+01 1.038160000000000061e+01 9.887499999999997513e+00 2.631800000000000495e+01 3.083889999999999887e+01 -4.732439999999999714e+01 1.830450000000000443e+01 -1.653699999999999948e+00 3.488320000000000931e+01 8.494049999999999656e-01 -1.562069999999999936e+01 -1.364220000000000077e+01 -1.673290000000000077e+01 -9.845489999999998076e+00 9.562860000000002358e+00 1.687660000000000338e+01 -2.201890000000000569e+00 2.781249999999999556e+00 4.019099999999999895e+00 -3.654150000000000009e+00 4.578210000000000335e+00 6.464380000000001125e+00 -1.177279999999999993e-01 -4.405410000000000159e-01 -5.535719999999999530e-01 -1.176190000000000013e-01 -4.434300000000002129e-01 -5.525340000000000806e-01 -2.829879999999999729e+00 -8.471770000000001133e+00 -9.728300000000002612e+00 2.938649999999999540e+00 -1.031429999999999936e+01 2.252039999999999864e+01 7.254559999999997899e+01 -4.185349999999999682e+00 4.998040000000000305e+01 2.691519999999998802e+01 -5.030980000000000274e+01 1.784389999999999787e+01 1.600329999999999941e+01 -2.027370000000000161e+01 -2.117849999999999966e+01 2.818400000000000105e+01 1.072940000000000005e+01 1.915919999999999845e+01 5.475350000000000116e-15 3.578120000000000642e-15 -1.000000000000000000e+01 4.070849999999999480e-15 4.770830000000000256e-15 -1.000000000000000000e+01 6.361110000000000530e-15 7.951389999999999226e-15 -1.113189999999999773e-14 1.998179999999999978e+01 8.718970000000000331e-01 2.396399999999999864e+00 2.400000000000000000e+01 1.232459999999999994e-14 2.226389999999999639e-14 2.000000000000000000e+01 0.000000000000000000e+00 1.908330000000000147e-14 6.361110000000000530e-15 7.951389999999999226e-15 -1.113189999999999773e-14 2.000000000000000000e+01 -6.361110000000000530e-15 2.544439999999999670e-14 2.400000000000000000e+01 4.770829999999998678e-15 2.862499999999999793e-14 2.000000000000000000e+01 1.033679999999999868e-14 1.272219999999999519e-14 6.361110000000000530e-15 7.951389999999999226e-15 -1.113189999999999773e-14 1.997479999999999833e+01 -1.025649999999999951e+00 -2.819380000000000219e+00 2.400000000000000000e+01 9.144089999999999852e-15 1.272220000000000308e-14 2.000000000000000000e+01 -1.033679999999999868e-14 1.908329999999999831e-14 6.361110000000000530e-15 7.951389999999999226e-15 -1.113189999999999773e-14 1.978150000000000119e+01 -3.009479999999999933e+00 -8.305149999999999366e+00 2.400000000000000000e+01 -3.578119999999999853e-15 3.180549999999998878e-14 2.000000000000000000e+01 8.746529999999998969e-15 2.862499999999999162e-14 1.508419999999999916e+01 -1.283629999999999960e+01 -3.085139999999999816e+01 -3.788979999999999393e+01 3.161599999999999966e+01 -7.015529999999998267e+01 1.383339999999999748e+01 -6.117309999999998382e+01 1.601699999999999946e+01 -2.908029999999999760e+01 -2.403640000000000398e+01 7.823349999999999582e+00 -2.818400000000000105e+01 1.072940000000000005e+01 -1.915919999999999845e+01 1.291849999999999880e-14 0.000000000000000000e+00 1.000000000000000000e+01 7.861280000000000608e-15 -7.951389999999999226e-15 1.000000000000000000e+01 9.541660000000000512e-15 9.541660000000000512e-15 -1.272219999999999993e-14 -1.998179999999999978e+01 8.718970000000000331e-01 -2.396399999999999864e+00 -2.400000000000000000e+01 -2.385420000000000411e-15 -9.541660000000000512e-15 -2.000000000000000000e+01 7.951389999999999226e-16 -1.272219999999999835e-14 9.541660000000000512e-15 9.541660000000000512e-15 -1.272219999999999993e-14 -2.000000000000000000e+01 -6.361109999999999741e-15 0.000000000000000000e+00 -2.400000000000000000e+01 7.951389999999991338e-16 0.000000000000000000e+00 -2.000000000000000000e+01 -3.180549999999999587e-15 9.541660000000000512e-15 9.541660000000000512e-15 9.541660000000000512e-15 -1.272219999999999993e-14 -1.997479999999999833e+01 -1.025649999999999951e+00 2.819380000000000219e+00 -2.400000000000000000e+01 -2.782990000000000282e-15 -1.590279999999999801e-14 -2.000000000000000000e+01 -6.361109999999999741e-15 6.361110000000000530e-15 9.541660000000000512e-15 9.541660000000000512e-15 -1.272219999999999993e-14 -1.978150000000000119e+01 -3.009479999999999933e+00 8.305149999999999366e+00 -2.400000000000000000e+01 -1.292099999999999835e-15 0.000000000000000000e+00 -2.000000000000000000e+01 -9.541660000000000512e-15 6.361110000000000530e-15
2.250000000000000000e+03 0.000000000000000000e+00 0.000000000000000000e+00 0.000000000000000000e+00 0.000000000000000000e+00 0.000000000000000000e+00 2.847040000000000148e+01 1.350589999999999868e+01 -7.379600000000003490e+01 -2.658000000000000185e+01 -5.935659999999999314e+01 -2.647400000000000020e+01 2.334220000000000184e+00 2.556329999999999814e+01 -1.713960000000000150e+01 1.036199999999999832e+01 9.924400000000000333e+00 2.632640000000000313e+01 3.093480000000000274e+01 -4.717580000000000240e+01 1.847019999999999840e+01 -1.622910000000000075e+00 3.504949999999999477e+01 6.310540000000001148e-01 -1.562319999999999887e+01 -1.389869999999999983e+01 -1.645620000000000260e+01 -9.838689999999999714e+00 9.519289999999999807e+00 1.681990000000000407e+01 -2.200299999999999923e+00 2.768369999999999997e+00 4.005060000000000286e+00 -3.650019999999999598e+00 4.557339999999999947e+00 6.442300000000001248e+00 -1.272340000000000138e-01 -4.405420000000001002e-01 -5.390150000000001329e-01 -1.271489999999999843e-01 -4.434309999999999086e-01 -5.378890000000000615e-01 -2.982139999999999347e+00 -8.449279999999998125e+00 -9.467629999999999768e+00 3.155429999999999957e+00 -9.923460000000000392e+00 2.181809999999999761e+01 7.261140000000000327e+01 -3.891290000000000582e+00 4.995199999999999818e+01 2.791140000000000043e+01 -5.030989999999999895e+01 1.919910000000000139e+01 1.669500000000000028e+01 -2.138060000000000116e+01 -1.913990000000000435e+01 2.818400000000000105e+01 1.072940000000000005e+01 1.915919999999999845e+01 2.573179999999999896e-14 -5.963540000000003814e-16 -1.000000000000000000e+01 9.618760000000000128e-15 -3.975690000000000513e-16 -1.000000000000000000e+01 -3.180550000000000771e-15 3.180549999999999982e-15 0.000000000000000000e+00 1.998179999999999978e+01 8.718970000000000331e-01 2.396399999999999864e+00 2.400000000000000000e+01 1.838760000000000083e-14 4.452780000000000541e-14 2.000000000000000000e+01 5.565969999999999210e-15 2.067360000000000366e-14 -3.180550000000000771e-15 3.180549999999999982e-15 0.000000000000000000e+00 2.000000000000000000e+01 7.951389999999997649e-15 1.431249999999999897e-14 2.400000000000000000e+01 7.951389999999999226e-15 5.406939999999999779e-14 2.000000000000000000e+01 5.565969999999999999e-15 1.590280000000000116e-14 -3.180550000000000771e-15 3.180549999999999982e-15 0.000000000000000000e+00 1.997479999999999833e+01 -1.025649999999999951e+00 -2.819380000000000219e+00 2.400000000000000000e+01 6.361109999999999741e-15 2.544439999999999354e-14 2.000000000000000000e+01 -7.951389999999997649e-15 -6.361110000000002897e-15 -3.180550000000000771e-15 3.180549999999999982e-15 0.000000000000000000e+00 1.978150000000000119e+01 -3.009479999999999933e+00 -8.305149999999999366e+00 2.400000000000000000e+01 -9.939229999999996439e-16 2.544440000000000932e-14 2.000000000000000000e+01 7.951389999999999226e-16 9.541659999999995779e-15 1.528630000000000067e+01 -1.296439999999999948e+01 -3.157580000000000098e+01 -3.852180000000000604e+01 3.132920000000000371e+01 -6.955500000000000682e+01 1.375949999999999918e+01 -6.027389999999999048e+01 1.581750000000000256e+01 -2.910030000000000427e+01 -2.403000000000000114e+01 7.822180000000000355e+00 -2.818400000000000105e+01 1.072940000000000005e+01 -1.915919999999999845e+01 7.580870000000002033e-15 -6.361110000000000530e-15 1.000000000000000000e+01 4.351259999999997266e-15 -6.361109999999999741e-15 1.000000000000000000e+01 -3.180549999999998404e-15 1.272219999999999993e-14 0.000000000000000000e+00 -1.998179999999999978e+01 8.718970000000000331e-01 -2.396399999999999864e+00 -2.400000000000000000e+01 3.578119999999999853e-15 0.000000000000000000e+00 -2.000000000000000000e+01 -3.975689999999999725e-15 -1.908330000000000462e-14 -3.180549999999998404e-15 1.272219999999999993e-14 0.000000000000000000e+00 -2.000000000000000000e+01 -1.590280000000000077e-15 9.541660000000000512e-15 -2.400000000000000000e+01 -9.144089999999999852e-15 1.272219999999999993e-14 -2.000000000000000000e+01 -1.590279999999999485e-15 0.000000000000000000e+00 -3.180549999999998404e-15 1.272219999999999993e-14 0.000000000000000000e+00 -1.997479999999999833e+01 -1.025649999999999951e+00 2.819380000000000219e+00 -2.400000000000000000e+01 -1.987850000000000540e-15 6.361109999999999741e-15 -2.000000000000000000e+01 -3.180549999999999193e-15 9.541660000000000512e-15 -3.180549999999998404e-15 1.272219999999999993e-14 0.000000000000000000e+00 -1.978150000000000119e+01 -3.009479999999999933e+00 8.305149999999999366e+00 -2.400000000000000000e+01 1.987850000000000145e-15 3.180549999999999193e-15 -2.000000000000000000e+01 1.590280000000001063e-15 -1.272219999999999835e-14
